<?xml version="1.0" encoding="utf-8"?>
<svg xmlns="http://www.w3.org/2000/svg" height="63.038448mm" id="svg5" version="1.1" viewBox="0 0 56.5 63.038448" width="56.5mm">
  <defs id="defs2">
    <clipPath clipPathUnits="userSpaceOnUse" id="clipPath1057">
      <rect height="65.130898" id="rect1059" style="stroke-width:0.271269" width="39.721909" x="-18.504492" y="104.38057"/>
    </clipPath>
  </defs>
  <g id="layer1" transform="translate(18.380696,-104.38057)">
    <g clip-path="url(#clipPath1057)" id="g1051">
      <path d="m 22.702501,142.58636 c -20.8441285,1.77045 -39.176857,-13.69183 -40.9473,-34.53595 -0.103657,-1.2204 -0.148061,-2.4451 -0.133054,-3.66984 l 16.9935769,0.20824 c -0.1413298,11.53231 9.0928752,20.99568 20.6252161,21.137 0.675181,0.008 1.350398,-0.0162 2.023251,-0.0733 z" id="path39" style="fill:#92d050;fill-opacity:0.749;fill-rule:nonzero;stroke:none;stroke-width:0.352778"/>
      <path d="m -1.8827476,167.42298 c 0,-20.91916 16.9583346,-37.8775 37.8775266,-37.8775 0.02978,0 0.05955,3e-5 0.08936,1e-4 l -0.03037,12.86168 c -13.815836,-0.0326 -25.042177,11.1409 -25.074774,24.95673 -3.5e-5,0.0196 -7e-5,0.0393 -7e-5,0.059 z" id="path41" style="fill:#002060;fill-opacity:0.749;fill-rule:nonzero;stroke:none;stroke-width:0.352778"/>
      <path d="m -18.183885,167.42298 c 0,-20.91916 16.9583377,-37.8775 37.877509,-37.8775 1.661901,0 3.322003,0.10939 4.96951,0.32741 l -2.153885,16.27498 c -11.749898,-1.55501 -22.53569758,6.70958 -24.0907208,18.45948 -0.1235393,0.93345 -0.1855082,1.87403 -0.1855082,2.81563 z" id="path43" style="fill:#ffc000;fill-opacity:0.749;fill-rule:nonzero;stroke:none;stroke-width:0.352778"/>
      <path d="m 36.38855,142.52533 c -20.919193,0 -37.87752,-16.95834 -37.87752,-37.8775 0,-0.0298 3.53e-5,-0.0596 1.059e-4,-0.0894 l 12.8616951,0.0304 c -0.03263,13.8158 11.140899,25.04214 24.956699,25.07474 0.01969,7e-5 0.03934,7e-5 0.05902,7e-5 z" id="path45" style="fill:#ff0000;fill-opacity:0.749;fill-rule:nonzero;stroke:none;stroke-width:0.352778"/>
    </g>
    <path d="M 24,104.38057 h 14 v 62.70092 h -14 z" id="pathI" style="font-weight:bold;font-size:88.1947px;font-family:Roboto;-inkscape-font-specification:Roboto-Bold;stroke-width:0.0846667"/>
  </g>
</svg>
